<?xml version="1.0" encoding="utf-8"?>
<!-- Generator: Adobe Illustrator 23.0.2, SVG Export Plug-In . SVG Version: 6.00 Build 0)  -->
<svg version="1.1" id="Слой_1" xmlns="http://www.w3.org/2000/svg" xmlns:xlink="http://www.w3.org/1999/xlink" x="0px" y="0px"
	 viewBox="0 0 256 256" style="enable-background:new 0 0 256 256;" xml:space="preserve">
<style type="text/css">
	.st0{fill-rule:evenodd;clip-rule:evenodd;fill:#FFE200;stroke:#000000;stroke-miterlimit:10;}
</style>
<g id="Слой_x0020_1">
	<g id="_690647296">
		<path class="st0" d="M101.4,47.2h-9.7H61.9C55.5,72.5,46.6,94.6,36.8,117c-5.2,11.7-10.9,20.7-16.8,31.5c-2.4,4.2-19,27.4-19,28.9
			c0,0.4,32.5,21.1,34.8,21.1c6.3,0,40.9-51.9,43.2-60.7l17.6,59.4h28.9l-26.1-69.9c-1-3.5-1.9-4.5,0.7-6.9
			c8.8-8.7,17.1-17.7,25.8-26.4c-7-5.5-16.4-10.6-27.1-14.5c-7.9-2.9-15.7-4.8-22.9-5.7C79.4,62.5,88.8,52.9,101.4,47.2z
			 M121.4,126.3c3,0,5.5,2.4,5.5,5.3s-2.5,5.3-5.5,5.3s-5.5-2.4-5.5-5.3S118.3,126.3,121.4,126.3z M129.1,150.1c3,0,5.5,2.4,5.5,5.3
			c0,2.9-2.5,5.3-5.5,5.3s-5.5-2.4-5.5-5.3C123.6,152.4,126.1,150.1,129.1,150.1z M136,173.6c3,0,5.5,2.4,5.5,5.3
			c0,2.9-2.5,5.3-5.5,5.3s-5.5-2.4-5.5-5.3C130.6,175.9,133.1,173.6,136,173.6z M128.6,197.3h0.5h7.6h21.1l20-59.6
			c2.7,8.9,36.1,60.8,42.3,60.8c1.4,0,15.7-9,18-10.4c2-1.2,16.9-10,16.9-10.8c0-1.2-17-25.3-19.2-29.3c-6-10.3-11.6-19.6-16.6-31.1
			c-9.9-22.7-18.6-44.4-25.2-69.9h-23.5h-15.2c12.6,5.8,22,15.3,25.5,26.7c-7.1,0.9-15,2.8-22.9,5.7c-11.8,4.3-21.9,10-29.2,16.2
			l-0.1,0.2l-25,25.5c-2.1,2.2-1.2,3.4-0.4,6.4C109.8,151.5,121.9,173.5,128.6,197.3z"/>
		<path class="st0" d="M123.1,43.9c-1.6,0.3-10.6-4.6-13.5-5.2c0,10.4,3.5,12.2,5.9,19.9l7.3-5.2c1.2,1,2.7,1.6,4.5,1.6
			c1.7,0,3.4-0.6,4.6-1.7l7.2,5.6c2.9-8.3,6.1-10,6.1-20.2c-2.8,0.6-12,5.3-13.4,5.3c-0.1,0-0.2-0.1-0.4-0.1
			c-1.1-0.9-2.6-1.4-4.1-1.4C125.7,42.5,124.3,43.1,123.1,43.9z"/>
		<path class="st0" d="M97.7,51.2c2.3-1.3,4.6-2.5,6.7-3.4c0.5,7,3.1,16.1,7.7,25.2c3.1,6,6.5,11.2,10.1,15.4
			c-5.1-4.1-12-8.1-20-11.3c-7.7-3.1-15.2-4.9-21.6-5.5C82.1,64.7,88.3,56.8,97.7,51.2z"/>
		<path class="st0" d="M158.9,51.3c-2.3-1.4-4.5-2.5-6.7-3.4c-0.5,7-3.1,16.1-7.7,25.2c-3,6-6.5,11.2-10.1,15.4
			c5.1-4.2,12-8.1,20-11.3c7.7-3.1,15.3-4.9,21.6-5.5C174.5,64.7,168.3,56.9,158.9,51.3z"/>
	</g>
</g>
</svg>
